<svg xmlns="http://www.w3.org/2000/svg" viewBox="0 0 320 320" width="320" height="320" role="img" aria-label="Illustrative GTM team portrait">
  <title>Illustrative GTM team portrait</title>
  <rect width="320" height="320" rx="24" fill="#f6f2e9"/>
  <circle cx="160" cy="112" r="48" fill="#fbf8f1" stroke="#211d17" stroke-width="4"/>
  <path d="M120 100c18-28 62-28 80 0" fill="none" stroke="#2c5640" stroke-width="8" stroke-linecap="round"/>
  <circle cx="143" cy="113" r="5" fill="#211d17"/>
  <circle cx="177" cy="113" r="5" fill="#211d17"/>
  <path d="M144 134c11 8 22 8 33 0" fill="none" stroke="#211d17" stroke-width="4" stroke-linecap="round"/>
  <path d="M80 250c15-56 47-80 80-80s65 24 80 80" fill="#e8ebdd" stroke="#211d17" stroke-width="4"/>
  <path d="M100 220h96M100 240h70" stroke="#211d17" stroke-width="4" stroke-linecap="round"/>
  <path d="M210 224l44-18-18 44-10-16-16-10Z" fill="#fbf8f1" stroke="#b42d24" stroke-width="4" stroke-linejoin="round"/>
  <path d="M64 82c42-24 88-32 136-24M218 64c24 7 43 18 58 34" fill="none" stroke="#2f5d63" stroke-width="4" stroke-linecap="round" stroke-dasharray="8 8"/>
  <circle cx="64" cy="82" r="7" fill="#6f9a57"/>
  <circle cx="276" cy="98" r="7" fill="#bc6b2e"/>
</svg>
